<svg xmlns="http://www.w3.org/2000/svg" width="190.832" height="45.5" viewBox="0 0 190.832 45.5">
  <g id="Group_1355" data-name="Group 1355" transform="translate(-427.477)">
    <path id="Path_5" data-name="Path 5" d="M573.486,317.434c-1.6,0-3.028-1.105-5.074-1.105-3.649,0-5.385,2.877-5.385,5.793a5.45,5.45,0,0,0,5.385,5.711c1.6,0,4.005-1.182,4.762-1.182a2.66,2.66,0,0,1,2.759,2.482c0,2.915-5.518,3.9-7.833,3.9-6.9,0-11.485-5-11.485-10.911A11.18,11.18,0,0,1,568.1,311.131c2.537,0,7.833.827,7.833,3.585a2.687,2.687,0,0,1-2.448,2.718" transform="translate(42.376 -299.205)" fill="#2f2f2f"/>
    <path id="Path_10" data-name="Path 10" d="M539.491,314.519a3.03,3.03,0,0,1,3.2-3.151c1.646,0,2.715.787,2.936,2.088,1.248-1.537,3.16-2.325,6.188-2.325,5.029,0,8.769,2.836,8.769,7.642v10.872a3.205,3.205,0,0,1-6.41,0v-9.887c0-2.638-1.87-3.9-4.183-3.9a3.761,3.761,0,0,0-4.1,3.9v9.887a3.205,3.205,0,0,1-6.41,0Z" transform="translate(36.403 -299.205)" fill="#2f2f2f"/>
    <path id="Path_9" data-name="Path 9" d="M522.52,315.207a3.606,3.606,0,0,1-.313-1.459c0-1.418,1.692-2.442,3.028-2.442a3.255,3.255,0,0,1,3.2,2.009l4.407,10.675,4.719-10.675a3.256,3.256,0,0,1,3.2-2.009c1.336,0,3.025,1.024,3.025,2.442a3.016,3.016,0,0,1-.309,1.459l-10.729,23.631a3.375,3.375,0,0,1-3.028,2.247c-2.179,0-3.337-1.223-3.337-2.442a4.349,4.349,0,0,1,.4-1.654l2.8-6.144Z" transform="translate(31.099 -299.144)" fill="#2f2f2f"/>
    <g id="Group_3" data-name="Group 3" transform="translate(-98.53 11.926)">
      <path id="Path_7" data-name="Path 7" d="M498.526,314.142c0-1.892,1.691-2.835,3.293-2.835,1.692,0,3.117.552,3.117,2.364h.088a5.2,5.2,0,0,1,4.5-2.364,2.942,2.942,0,0,1,3.116,3.032c0,1.851-1.915,1.97-3.828,2.757s-3.871,1.536-3.871,3.782v8.705a3.205,3.205,0,0,1-6.41,0Z" transform="translate(121.709 -311.07)" fill="#2f2f2f"/>
      <path id="Path_8" data-name="Path 8" d="M523.418,317.749c-1.2,0-3.649-1.653-5.742-1.653-1.157,0-2.181.471-2.181,1.575,0,2.638,11.127,2.245,11.127,8.706,0,3.78-3.6,6.655-9.125,6.655-3.6,0-8.947-1.812-8.947-4.372a2.835,2.835,0,0,1,2.761-2.521c2.492,0,3.606,1.928,6.631,1.928,1.958,0,2.538-.551,2.538-1.613,0-2.6-11.129-2.208-11.129-8.706,0-3.938,3.607-6.618,8.679-6.618,3.16,0,8.01,1.3,8.01,4.1a2.592,2.592,0,0,1-2.625,2.521" transform="translate(125.212 -311.131)" fill="#2f2f2f"/>
    </g>
    <path id="Path_6" data-name="Path 6" d="M501.8,329.092c0,1.457,0,3.7-3.071,3.7a2.852,2.852,0,0,1-3.073-2.4,8.07,8.07,0,0,1-6.1,2.641c-6.009,0-10.593-4.531-10.593-10.911a10.686,10.686,0,0,1,10.593-10.991,7.7,7.7,0,0,1,6.1,2.6,2.949,2.949,0,0,1,3.073-2.364c3.071,0,3.071,2.245,3.071,3.7Zm-11.35-1.259c3.337,0,4.94-2.993,4.94-5.711s-1.559-5.792-4.94-5.792c-3.517,0-5.075,3.074-5.075,5.792s1.6,5.711,5.075,5.711" transform="translate(16.904 -299.205)" fill="#2f2f2f"/>
    <path id="Path_4" data-name="Path 4" d="M480.564,317.434c-1.6,0-3.025-1.105-5.072-1.105-3.652,0-5.388,2.877-5.388,5.793a5.452,5.452,0,0,0,5.388,5.711c1.6,0,4-1.182,4.761-1.182a2.662,2.662,0,0,1,2.761,2.482c0,2.915-5.52,3.9-7.835,3.9-6.9,0-11.485-5-11.485-10.911a11.179,11.179,0,0,1,11.485-10.991c2.537,0,7.835.827,7.835,3.585a2.687,2.687,0,0,1-2.449,2.718" transform="translate(11.857 -299.205)" fill="#2f2f2f"/>
    <g id="Group_2" data-name="Group 2" transform="translate(-96.884)">
      <path id="Path_1" data-name="Path 1" d="M462.753,320.8a2.126,2.126,0,0,0-.953-1.6,1.785,1.785,0,0,0-.54-.239,2.156,2.156,0,0,0-.636-.1,2.039,2.039,0,0,0-.274.02c-.478-.1-.688-.417-.887-.919-.506-1.282-1.082-2.537-1.619-3.805a3.49,3.49,0,0,0-3.218-2.3c-.1-.007-.206-.008-.313-.008q-3.1,0-6.2,0h-.251q-3.1,0-6.2,0c-.107,0-.212,0-.313.008a3.49,3.49,0,0,0-3.218,2.3c-.54,1.268-1.116,2.523-1.622,3.805-.2.5-.4.82-.884.919a2.052,2.052,0,0,0-.273-.02,2.168,2.168,0,0,0-.638.1,1.812,1.812,0,0,0-.54.239,2.118,2.118,0,0,0-.953,1.6c-.005.063-.009.128-.009.193a1.729,1.729,0,0,0,.036.372,2.134,2.134,0,0,0,1.8,1.749c.085.05.174.1.263.158v.506c0,2.716-.007,3.029,0,5.747a2.137,2.137,0,0,0,2.357,2.351c.093,0,.185,0,.277,0h.1c.424,0,.849,0,1.271,0a2.832,2.832,0,0,0,1.279-.277,1.57,1.57,0,0,0,.58-.463,2.631,2.631,0,0,0,.511-1.6c0-.09.011-.188.019-.322.007-.016.023-.038.032-.055.179-1.107,2.908-1.986,6.256-1.986,3.4,0,6.16.907,6.263,2.036l0,.005v.031a.136.136,0,0,1,.005.027v.012c.007.1.012.179.014.252a2.629,2.629,0,0,0,.509,1.6,1.592,1.592,0,0,0,.58.463,2.851,2.851,0,0,0,1.281.277c.425.005.849,0,1.272,0h.1c.093,0,.186,0,.281,0a2.135,2.135,0,0,0,2.355-2.351c.011-2.718,0-3.031,0-5.747v-.506c.088-.055.177-.108.263-.158a2.134,2.134,0,0,0,1.8-1.749,1.908,1.908,0,0,0,.034-.372,1.857,1.857,0,0,0-.008-.193m-22.028,4.8-.026,0-.131.007c-.05,0-.1,0-.146-.007h-.009a1.782,1.782,0,0,1-.07-3.542l.023,0a1.214,1.214,0,0,1,.123-.008l.065,0c.028,0,.058,0,.088,0s.068,0,.1.005l.047.007a1.78,1.78,0,0,1-.063,3.538m14.835,0h-.008c-.049.005-.1.005-.146.007l-.131-.007-.026,0a1.781,1.781,0,0,1-.062-3.538l.046-.007c.032,0,.066,0,.1-.005s.058-.005.089,0l.062,0c.042,0,.085,0,.126.008l.022,0a1.781,1.781,0,0,1-.072,3.542m2.635-6.147c-.039.034-.082.063-.121.094a3.971,3.971,0,0,1-1.878.726c-.084.005-.167.011-.252.011q-3.953-.006-7.908-.005h-.1q-3.955,0-7.909.005c-.086,0-.167-.005-.251-.011a3.961,3.961,0,0,1-1.877-.726c-.04-.031-.084-.061-.124-.094a.641.641,0,0,1-.2-.555c.378-.919.764-1.841,1.16-2.753.27-.615.545-1.232.827-1.839a2.182,2.182,0,0,1,.113-.209,1.944,1.944,0,0,1,1.53-.881l.016.018c.046-.007.089-.02.138-.024l.124,0q3.186-.008,6.371-.007h.254q3.184,0,6.371.007l.124,0c.049,0,.092.018.138.024l.016-.018a1.95,1.95,0,0,1,1.532.881c.039.066.077.135.112.209.283.607.556,1.224.827,1.839.4.912.781,1.834,1.159,2.753a.634.634,0,0,1-.2.555" transform="translate(98.888 -298.953)" fill="#2f2f2f"/>
      <path id="Path_2" data-name="Path 2" d="M470.717,318.887h-.7v-2.108a6.225,6.225,0,0,0-3.112-5.388L452.6,303.127a6.223,6.223,0,0,0-6.224,0l-14.313,8.264a6.222,6.222,0,0,0-3.112,5.388v3.182a2,2,0,0,0,4,0v-.872a6.222,6.222,0,0,1,3.11-5.39l10.312-5.954a6.229,6.229,0,0,1,6.224,0l10.312,5.954a6.217,6.217,0,0,1,3.105,5.187h-.7a1.319,1.319,0,0,0-1.059,2.1l2.7,3.652a1.321,1.321,0,0,0,2.123,0l2.7-3.652a1.319,1.319,0,0,0-1.059-2.1" transform="translate(97.397 -302.293)" fill="#ff7900"/>
      <path id="Path_3" data-name="Path 3" d="M468.533,321.951a2,2,0,0,0-2,2v1.42a6.225,6.225,0,0,1-3.112,5.389l-10.312,5.954a6.222,6.222,0,0,1-6.223,0l-10.311-5.954a6.22,6.22,0,0,1-3.113-5.389v-.683h.742a1.319,1.319,0,0,0,1.059-2.1l-2.7-3.652a1.321,1.321,0,0,0-2.123,0l-2.7,3.652a1.319,1.319,0,0,0,1.059,2.1h.664v2.993a6.224,6.224,0,0,0,3.11,5.39l14.313,8.264a6.236,6.236,0,0,0,6.223,0l14.312-8.264a6.228,6.228,0,0,0,3.112-5.39v-3.73a2,2,0,0,0-2-2" transform="translate(96.884 -296.666)" fill="#ff7900"/>
    </g>
  </g>
</svg>
